<?xml version="1.0" encoding="utf-8"?>
<!-- Svg Vector Icons : http://www.onlinewebfonts.com/icon -->
<!DOCTYPE svg PUBLIC "-//W3C//DTD SVG 1.1//EN" "http://www.w3.org/Graphics/SVG/1.1/DTD/svg11.dtd">
<svg version="1.1" xmlns="http://www.w3.org/2000/svg" xmlns:xlink="http://www.w3.org/1999/xlink" x="0px" y="0px" viewBox="0 0 1000 1000" enable-background="new 0 0 1000 1000" xml:space="preserve">
<metadata> Svg Vector Icons : http://www.onlinewebfonts.com/icon </metadata>
<g><g transform="translate(0.000000,511.000000) scale(0.100000,-0.100000)"><path d="M5730.1,3121.4c-157.2-81.6-234.7-249-140.8-298c22.4-12.2,93.9-20.4,155.1-18.4c91.8,4.1,120.4-2,136.7-30.6c28.6-44.9-30.6-93.9-114.3-93.9c-32.7,0-85.7-20.4-118.4-42.9c-57.1-42.9-61.2-44.9-179.6-10.2c-175.5,49-383.7,42.9-506.2-12.3c-91.8-42.9-126.5-46.9-477.6-44.9c-342.9,0-391.9,6.1-512.3,49l-134.7,46.9l-122.5-65.3c-83.7-44.9-132.7-85.7-153.1-130.6c-75.5-153.1-151-230.6-253.1-259.2c-208.2-59.2-416.4-18.4-416.4,81.6c0,55.1-77.6,102.1-171.4,102.1c-95.9,0-230.7-73.5-328.6-179.6c-102.1-108.2-93.9-183.7,18.4-222.5c165.3-53.1,110.2-157.2-316.4-604.2c-175.5-183.7-326.6-355.2-334.7-379.6c-12.2-38.8-195.9-138.8-414.3-226.6c-83.7-32.7-98-59.2-116.3-224.5c-8.2-73.5-26.5-191.9-42.9-265.3l-30.6-134.7L874.4-54.5C570.3-285.2,576.4-277,421.3-624l-83.7-189.8l42.9-55.1c89.8-110.2,93.9-136.8,55.1-283.7c-42.9-159.2-67.4-191.9-210.2-273.5c-98-55.1-108.2-67.3-120.4-153.1c-16.3-110.2,2-128.6,140.8-128.6c122.5,0,338.8,106.1,449,218.4l77.6,81.6l-51,110.2l-53.1,110.2l112.3,112.3c142.9,144.9,330.7,224.5,528.6,224.5c122.5,0,475.6-67.4,540.9-102.1c20.4-12.2,30.6-57.1,32.7-155.1c2.1-89.8,16.3-165.3,40.8-210.2c34.7-69.4,34.7-73.5-22.4-251.1l-57.1-177.6l91.8-118.4c51-65.3,112.3-151,136.7-191.8c24.5-42.9,67.4-89.8,95.9-108.2c26.5-18.4,87.8-110.2,132.7-204.1c89.8-185.8,118.4-218.4,226.6-263.3c67.4-26.5,93.9-26.5,316.4,16.3c257.2,51,412.3,98,557.2,173.5c110.2,55.1,163.3,46.9,416.4-63.3c102.1-42.9,200-79.6,218.4-79.6c46.9,0,469.4,269.4,469.4,298c0,14.3,65.3,112.3,142.9,218.4c157.2,214.3,165.3,242.9,102.1,402.1c-22.4,57.1-40.8,108.2-40.8,112.3c0,4.1,61.2,51,138.8,104.1c75.5,55.1,216.4,177.6,312.3,277.6c157.1,159.2,185.7,179.6,251,179.6c91.9,0,95.9-16.3,100-351.1l4.1-255.1l122.5-151c200-251,259.2-296,485.8-367.4c116.3-36.7,198-73.5,198-89.8c0-14.3-24.5-67.4-53.1-120.4l-53.1-93.9l83.7-100c44.9-53.1,95.9-108.2,112.3-122.5c16.3-14.3,38.8-69.4,53.1-122.5c12.2-55.1,44.9-120.4,73.5-147c42.9-40.8,55.1-42.9,124.5-22.5c126.5,38.8,136.7,77.6,77.5,281.7c-77.5,271.5-55.1,334.7,259.2,720.5c206.1,251.1,259.2,367.4,273.5,598c26.6,465.4,26.6,467.4,251.1,424.5l134.7-24.5l44.9-185.7c53.1-212.3,122.5-332.7,220.4-373.5c106.1-44.9,155.1-36.7,363.3,61.2c244.9,114.3,383.7,151,451.1,118.4c30.6-14.3,85.7-87.8,149-206.1c57.1-108.2,114.3-191.9,138.8-200c55.1-18.4,116.3-8.2,155.1,26.5c28.6,26.5,28.6,42.9-6.1,185.7c-63.3,271.5-100,381.7-140.8,426.6c-55.1,59.2-53.1,153.1,2,340.8c51,171.5,77.6,198,222.5,226.6c61.2,10.2,75.5,4.1,149-77.6c63.3-73.5,100-95.9,185.7-114.3c57.1-14.3,138.8-20.4,177.6-16.3c69.4,6.1,71.4,8.2,77.6,104.1c4.1,73.5-4.1,116.3-38.8,169.4c-55.1,89.8-47,210.2,34.7,547l55.1,230.6l-44.9,122.5c-38.8,104.1-55.1,124.5-118.4,147l-71.4,26.5l-187.8-183.7c-102.1-102.1-208.2-193.9-234.7-204.1c-65.3-22.5-302.1,63.3-467.4,169.4c-114.3,73.5-128.6,91.9-157.2,187.8c-26.5,91.9-42.9,114.3-112.3,149c-136.7,69.4-424.5,142.9-563.3,142.9H7814l-14.3,71.4c-30.6,165.3,34.7,434.7,187.8,767.4c49,106.1,100,249,112.3,314.3l22.5,120.4l-83.7,77.6c-71.4,67.4-93.9,77.6-181.6,77.6c-85.7,0-124.5,16.3-312.3,134.7c-185.8,118.4-224.5,153.1-289.8,259.2l-77.6,122.5l-198-14.3c-108.2-8.2-249-18.4-314.3-24.5l-114.3-12.3l-55.1,81.6c-65.3,98-118.4,120.4-187.8,83.7c-57.1-30.6-49-34.7-228.6,120.4C5932.2,3186.7,5873,3196.9,5730.1,3121.4z"/></g></g>
</svg>