<?xml version="1.0" encoding="utf-8"?>
<!-- Svg Vector Icons : http://www.onlinewebfonts.com/icon -->
<!DOCTYPE svg PUBLIC "-//W3C//DTD SVG 1.1//EN" "http://www.w3.org/Graphics/SVG/1.1/DTD/svg11.dtd">
<svg version="1.1" xmlns="http://www.w3.org/2000/svg" xmlns:xlink="http://www.w3.org/1999/xlink" x="0px" y="0px" viewBox="0 0 1000 1000" enable-background="new 0 0 1000 1000" xml:space="preserve">
<metadata> Svg Vector Icons : http://www.onlinewebfonts.com/icon </metadata>
<g><g transform="translate(0.000000,511.000000) scale(0.100000,-0.100000)"><path d="M4758,4989.6c-377.7-43-796.1-239.7-1094.7-513.4l-147-135.7l-791.6-9.1c-757.7-9.1-793.9-11.3-920.5-61.1c-183.2-72.4-375.4-255.6-459.1-436.5l-65.6-142.5V-232.6v-3924.1l65.6-142.5c83.7-180.9,275.9-364.1,459.1-438.8l131.2-52H5000h3064.6l131.2,52c183.2,74.6,375.5,257.9,459.1,438.8l65.6,142.5v3924.1v3924.1l-65.6,142.5c-83.7,180.9-275.9,364.1-459.1,436.5c-126.6,49.8-160.6,52-920.5,61.1l-791.6,9.1l-147,135.7c-305.3,280.4-701.1,463.7-1110.5,513.4C5015.8,5016.8,4993.2,5016.8,4758,4989.6z M5350.6,4618.7c246.5-52,540.6-208.1,744.1-398.1c716.9-669.5,687.5-1804.8-67.9-2426.8C5723.7,1545.1,5407.1,1432,5000,1432c-178.7,0-305.3,13.6-407.1,40.7C3667.9,1726,3159,2700.8,3484.7,3594.2c90.5,246.5,219.4,438.8,425.2,628.8c194.5,183.2,493.1,343.8,728.3,393.5C4832.6,4659.4,5153.8,4659.4,5350.6,4618.7z M3258.5,3965.1c0-4.5-24.9-65.6-56.5-138c-119.9-266.9-156.1-452.4-156.1-780.3c0-246.5,9-341.5,49.8-493c190-703.4,714.7-1228.1,1420.4-1418.1c187.7-52,581.3-67.8,791.6-36.2c916,149.3,1594.5,902.4,1653.3,1834.2c18.1,325.7-45.2,631-212.6,1013.3c-9,20.4,124.4,27.1,631,27.1h642.3l122.1-72.4c92.7-56.5,135.7-101.8,180.9-187.7l56.6-110.8V-232.6v-3835.9l-58.8-110.8c-33.9-67.9-95-140.2-153.8-180.9l-97.2-67.9H5000H1928.6l-97.3,67.9c-58.8,40.7-119.9,113.1-153.8,180.9l-58.8,110.8v3835.9V3601l54.3,108.6c54.3,113.1,149.3,196.8,262.4,237.5C1996.5,3969.6,3258.5,3985.4,3258.5,3965.1z"/><path d="M4941.2,4087.2c-108.6-43-122.1-97.2-122.1-502.1v-380h-393.5h-395.8l-45.2-58.8c-63.3-79.2-58.8-156.1,9-223.9c54.3-56.5,61.1-56.5,438.8-56.5h384.5l6.8-398.1c6.8-386.8,9-398.1,61.1-441c29.4-22.6,81.4-43,115.4-43c33.9,0,85.9,20.4,115.3,43c52,43,54.3,54.3,61.1,441l6.8,398.1h384.5c377.7,0,384.5,0,438.8,56.5c67.9,67.9,72.4,144.8,9.1,223.9l-45.2,58.8h-393.6h-393.5l-6.8,395.8c-6.8,359.6-11.3,398.1-52,438.8C5065.6,4094,5002.3,4112.1,4941.2,4087.2z"/><path d="M3244.9,34.2l-257.8-253.3L2831-67.5C2711.1,47.8,2659.1,84,2609.4,84c-110.8-2.3-201.3-110.8-174.2-212.6c6.8-29.4,117.6-156,244.3-282.7C3000.6-728,2971.2-732.5,3398.7-305c291.8,294,334.7,343.8,334.7,409.4c0,90.5-85.9,183.2-171.9,183.2C3514.1,287.5,3443.9,231,3244.9,34.2z"/><path d="M4434.6-142.2c-61.1-61.1-61.1-187.7,4.5-248.8c47.5-45.2,72.4-45.2,1465.6-45.2h1418.1l47.5,52c65.6,70.1,65.6,174.2-2.3,237.5l-52,49.8H5897.9C4509.2-96.9,4479.8-96.9,4434.6-142.2z"/><path d="M3247.2-1318.3l-260.1-257.9l-142.5,140.2c-79.2,74.6-171.9,144.8-205.8,153.8c-115.3,29.4-239.7-110.8-196.8-221.6c11.3-29.4,122.1-151.5,246.5-271.4c312.1-307.6,285-312.1,710.2,113.1c287.2,287.2,334.7,343.8,334.7,404.9c0,90.5-61.1,160.6-153.8,178.7C3509.5-1065,3493.7-1076.3,3247.2-1318.3z"/><path d="M4439.1-1499.2c-65.6-61.1-65.6-187.7-4.5-248.8c45.2-45.2,74.6-45.2,1465.6-45.2h1422.6l47.5,52c65.6,70.1,65.6,174.2-2.3,237.5l-52,49.8H5902.4C4511.5-1454,4486.6-1454,4439.1-1499.2z"/><path d="M2636.5-2528.3c-92.7-90.5-76.9-174.2,65.6-323.4l122.1-128.9l-122.1-131.2c-140.2-151.6-160.6-244.3-70.1-328c88.2-83.7,160.6-65.6,312.1,79.2l133.4,126.7l133.4-126.7c101.8-97.2,151.5-128.9,201.3-128.9c101.8,0,171.9,67.9,171.9,167.4c0,70.1-20.4,101.8-128.9,212.6l-128.9,131.2l124.4,122.1c67.8,67.9,131.2,142.5,138,165.1c33.9,110.8-106.3,244.3-219.4,208.1c-29.4-9.1-106.3-67.9-171.9-131.2l-119.9-113.1l-133.4,128.9C2792.6-2453.7,2724.7-2437.8,2636.5-2528.3z"/><path d="M4439.1-2863c-63.3-67.9-65.6-180.9-4.5-242c45.2-45.2,74.6-45.2,1470.1-45.2s1424.9,0,1470.1,45.2c67.9,67.9,61.1,187.7-13.6,246.5c-58.8,47.5-79.2,47.5-1467.9,47.5H4486.6L4439.1-2863z"/></g></g>
</svg>