<?xml version="1.0" encoding="UTF-8" standalone="no"?>
<svg
   xmlns:dc="http://purl.org/dc/elements/1.1/"
   xmlns:cc="http://creativecommons.org/ns#"
   xmlns:rdf="http://www.w3.org/1999/02/22-rdf-syntax-ns#"
   xmlns:svg="http://www.w3.org/2000/svg"
   xmlns="http://www.w3.org/2000/svg"
   xmlns:sodipodi="http://sodipodi.sourceforge.net/DTD/sodipodi-0.dtd"
   xmlns:inkscape="http://www.inkscape.org/namespaces/inkscape"
   height="1000"
   width="1600"
   viewBox="0 0 80 50"
   version="1.1"
   id="svg12"
   sodipodi:docname="Flag_of_the_United_Kingdom.svg"
   inkscape:version="0.92.3 (2405546, 2018-03-11)">
  <metadata
     id="metadata18">
    <rdf:RDF>
      <cc:Work
         rdf:about="">
        <dc:format>image/svg+xml</dc:format>
        <dc:type
           rdf:resource="http://purl.org/dc/dcmitype/StillImage" />
        <dc:title></dc:title>
      </cc:Work>
    </rdf:RDF>
  </metadata>
  <defs
     id="defs16" />
  <sodipodi:namedview
     pagecolor="#ffffff"
     bordercolor="#666666"
     borderopacity="1"
     objecttolerance="10"
     gridtolerance="10"
     guidetolerance="10"
     inkscape:pageopacity="0"
     inkscape:pageshadow="2"
     inkscape:window-width="1680"
     inkscape:window-height="965"
     id="namedview14"
     showgrid="false"
     fit-margin-top="0"
     fit-margin-left="0"
     fit-margin-right="0"
     fit-margin-bottom="0"
     inkscape:zoom="0.201"
     inkscape:cx="-141.79104"
     inkscape:cy="500"
     inkscape:window-x="3360"
     inkscape:window-y="0"
     inkscape:window-maximized="1"
     inkscape:current-layer="svg12" />
  <path
     d="M 0,0 H 80 V 50 H 0 Z"
     id="path2"
     inkscape:connector-curvature="0"
     style="fill:#ffffff;stroke-width:0.89442718" />
  <path
     d="M 40,0 V 50 M 0,25 h 80"
     id="path4"
     inkscape:connector-curvature="0"
     style="stroke:#ffffff;stroke-width:6.70820379" />
  <path
     d="M 0,20 H 80 V 30 H 0 Z"
     id="path6"
     inkscape:connector-curvature="0"
     style="fill:#cf142b;fill-rule:evenodd;stroke-width:0.89442718" />
  <path
     d="m 36,0 h 8 V 50 H 36 Z M 0,3.751 20.6664,16.667 h 6 L 0,0 Z m 80,42.5 -20.6664,-12.918 h -6 L 80,50 V 46.249 Z M 0,50 H 6 L 32.6664,33.333 h -6 z M 80,0 H 74 L 47.3336,16.667 h 6 z"
     id="path8"
     inkscape:connector-curvature="0"
     style="fill:#cf142b;fill-rule:evenodd;stroke-width:0.89442718" />
  <path
     d="m 8.9336,0 h 24.4 v 15.251 z m 0,50 h 24.4 V 34.749 Z M 71.0664,0 h -24.4 v 15.251 z m 0,50 h -24.4 V 34.749 Z M 0,5.584 v 11.083 h 17.7336 z m 80,0 V 16.667 H 62.2664 Z m 0,38.832 V 33.333 H 62.2664 Z m -80,0 V 33.333 h 17.7336 z"
     id="path10"
     inkscape:connector-curvature="0"
     style="fill:#00247d;fill-rule:evenodd;stroke-width:0.89442718" />
</svg>
