<?xml version="1.0" standalone="no"?>
<!DOCTYPE svg PUBLIC "-//W3C//DTD SVG 20010904//EN"
 "http://www.w3.org/TR/2001/REC-SVG-20010904/DTD/svg10.dtd">
<svg version="1.0" xmlns="http://www.w3.org/2000/svg"
 width="192.000000pt" height="192.000000pt" viewBox="0 0 192.000000 192.000000"
 preserveAspectRatio="xMidYMid meet">

<g transform="translate(0.000000,192.000000) scale(0.100000,-0.100000)"
fill="#000000" stroke="none">
<path d="M568 1900 c-75 -40 -85 -96 -25 -126 56 -28 74 -54 108 -146 l33 -91
-25 -19 c-123 -95 -149 -104 -149 -50 0 57 -49 70 -93 24 -44 -46 -31 -92 25
-92 42 0 43 -22 4 -77 -20 -26 -42 -56 -49 -67 -12 -17 -16 -17 -102 13 -103
37 -110 42 -136 92 -27 54 -54 66 -88 42 -36 -27 -64 -88 -56 -124 10 -43 37
-54 94 -38 25 7 54 12 65 10 28 -4 169 -70 177 -83 4 -5 0 -33 -7 -62 -8 -28
-14 -63 -14 -78 0 -37 -15 -43 -49 -19 -36 26 -57 27 -71 2 -13 -25 -13 -77 0
-102 14 -25 41 -24 74 2 14 11 30 18 34 15 9 -5 22 -88 26 -151 1 -28 -4 -33
-74 -67 -90 -44 -111 -48 -170 -31 -40 11 -48 11 -70 -6 -33 -24 -36 -51 -10
-100 40 -80 95 -89 129 -22 26 51 41 61 135 97 89 35 106 33 130 -14 8 -15 28
-45 45 -66 33 -42 29 -56 -15 -56 -11 0 -29 -9 -38 -19 -15 -16 -16 -23 -6
-43 39 -75 120 -75 120 1 0 33 14 32 76 -10 90 -61 87 -53 53 -149 -34 -94
-47 -114 -101 -141 -67 -34 -57 -89 23 -130 48 -24 82 -19 104 15 13 20 14 30
1 77 -12 49 -12 58 5 102 26 65 57 124 69 132 10 6 120 -12 157 -26 l23 -8
-25 -36 c-27 -41 -24 -62 12 -76 39 -15 62 -11 89 16 l26 26 -27 35 c-15 19
-25 37 -22 40 6 6 125 27 161 28 27 1 33 -5 67 -74 40 -80 46 -119 27 -181
-10 -36 -9 -41 12 -64 28 -30 49 -31 100 -5 79 40 88 95 22 129 -55 28 -69 49
-102 147 -26 77 -28 90 -16 99 9 5 41 28 72 50 31 22 59 39 62 38 4 -1 11 -21
17 -45 8 -34 15 -44 33 -46 24 -4 65 26 83 61 15 26 -6 57 -39 57 -15 0 -34 5
-42 10 -12 8 -11 14 8 40 13 17 37 51 53 76 17 24 34 44 38 44 20 0 178 -64
195 -78 10 -9 27 -34 37 -54 34 -66 89 -57 129 22 26 51 25 72 -5 100 -23 21
-28 22 -64 12 -62 -19 -94 -14 -185 28 -47 21 -86 40 -86 42 0 2 7 38 15 81 8
43 15 81 15 83 0 12 29 1 45 -16 23 -25 61 -26 75 -1 16 31 12 86 -8 104 -24
21 -31 21 -62 -3 -14 -11 -30 -20 -36 -20 -6 0 -16 30 -23 68 -6 37 -14 79
-17 94 -6 27 -2 30 82 69 97 44 121 48 178 29 34 -11 41 -10 65 8 35 26 34 78
-3 126 -45 59 -93 56 -120 -7 -20 -48 -43 -63 -146 -99 -89 -31 -94 -32 -104
-14 -6 10 -30 45 -54 77 -42 59 -42 59 -20 68 13 6 35 12 51 15 39 9 38 55 -4
90 -51 43 -89 30 -89 -30 0 -41 -14 -51 -43 -30 -12 9 -43 30 -69 47 -27 17
-48 36 -48 43 0 24 62 181 78 200 9 10 34 27 54 37 66 34 57 89 -22 129 -51
26 -72 25 -100 -5 -21 -23 -22 -28 -12 -64 7 -21 12 -52 12 -68 0 -31 -74
-203 -87 -203 -18 0 -167 31 -172 35 -2 3 5 19 17 35 39 52 21 90 -43 90 -63
0 -84 -34 -49 -81 13 -18 20 -37 16 -41 -14 -14 -166 -36 -179 -26 -20 16 -84
161 -85 194 -1 18 5 46 12 64 12 28 11 34 -7 58 -25 34 -57 37 -105 12z"/>
</g>
</svg>
